<svg width="558" height="559" xmlns="http://www.w3.org/2000/svg" xmlns:xlink="http://www.w3.org/1999/xlink" overflow="hidden"><defs><clipPath id="clip0"><rect x="388" y="89" width="558" height="559"/></clipPath><clipPath id="clip1"><rect x="389" y="90" width="557" height="557"/></clipPath><clipPath id="clip2"><rect x="389" y="90" width="557" height="557"/></clipPath><clipPath id="clip3"><rect x="389" y="90" width="557" height="557"/></clipPath></defs><g clip-path="url(#clip0)" transform="translate(-388 -89)"><g clip-path="url(#clip1)"><g clip-path="url(#clip2)"><g clip-path="url(#clip3)"><path d="M503.301 397.51C500.4 399.251 496.919 401.572 494.018 403.312 480.093 413.756 470.809 429.422 468.489 446.828L458.045 574.474 467.328 577.375C470.229 578.535 546.817 600.583 668.08 600.583 789.344 600.583 865.351 578.535 868.832 577.375L878.116 574.474 868.252 447.989 868.252 446.828C865.351 430.002 856.068 414.336 842.723 403.893 826.477 391.708 809.071 381.265 789.924 373.722 798.047 356.316 791.084 335.428 774.258 326.725 816.614 268.704 803.849 186.895 745.828 144.54 687.807 102.184 605.998 114.949 563.643 172.97 529.991 218.806 529.991 280.889 563.643 326.725 546.236 336.008 539.274 356.896 547.977 374.882 533.472 381.265 516.646 389.388 503.301 397.51ZM572.346 369.66C565.964 366.179 564.223 358.056 567.704 351.674 570.025 347.613 574.086 345.292 578.728 345.292 628.626 391.708 705.794 391.708 755.692 345.292 756.852 345.292 758.013 345.292 758.593 345.872 765.555 347.613 769.617 354.575 767.876 361.538 767.296 365.019 764.975 367.92 762.074 369.66 739.446 383.585 704.633 391.708 667.5 391.708 630.367 391.708 596.134 383.585 572.346 369.66ZM691.869 217.646 709.855 223.448C717.398 239.114 737.125 252.458 737.705 275.086L737.705 280.889C737.705 289.011 736.545 296.554 733.644 304.097L708.115 304.097C705.794 300.616 702.312 298.295 698.251 298.295L686.647 298.295C680.265 298.295 675.043 303.517 675.043 309.899 675.043 316.281 680.265 321.503 686.647 321.503L698.251 321.503C702.312 321.503 706.374 319.182 708.115 315.701L728.422 315.701C709.275 348.773 666.92 360.377 633.268 341.23 614.121 330.206 601.356 310.479 599.035 288.431 590.912 242.015 657.636 258.841 691.869 217.646ZM667.5 142.219C709.855 142.219 748.149 167.168 765.555 205.461 742.347 188.055 707.534 177.031 667.5 177.031 627.466 177.031 592.653 188.055 569.445 205.461 586.851 167.168 625.145 142.219 667.5 142.219ZM793.985 568.672 789.344 529.798C788.764 523.416 782.961 518.774 776.579 519.934 770.197 520.515 765.555 526.317 766.716 532.699L771.357 571.573C736.545 575.634 702.312 577.375 667.5 577.375 632.688 577.375 598.455 575.634 564.223 571.573L568.865 532.699C569.445 526.317 565.383 520.515 559.001 519.934 552.619 519.354 546.817 523.416 546.236 529.798L541.595 568.672C514.325 564.61 494.018 560.549 483.574 557.648L492.277 450.309C493.438 445.088 495.178 439.285 498.079 434.644L524.189 456.692 546.817 430.002 525.349 411.435C538.694 403.312 552.039 396.93 566.544 391.128 593.233 405.633 630.367 414.336 669.241 414.336 708.695 414.336 745.828 405.633 772.518 390.548 787.023 395.77 800.368 402.732 813.713 410.855L791.665 430.002 814.293 456.692 840.402 434.644C843.303 439.285 845.044 444.507 846.204 450.309L854.907 557.068C841.562 560.549 821.835 564.61 793.985 568.672Z" fill="#FF1BE1" fill-rule="nonzero" fill-opacity="1"/><path d="M430.775 298.875C427.294 311.64 418.591 322.083 406.406 327.885 418.01 333.688 427.294 344.131 430.775 356.896 434.256 344.131 442.959 333.688 455.144 327.885 442.959 322.083 434.256 311.64 430.775 298.875Z" fill="#FF1BE1" fill-rule="nonzero" fill-opacity="1"/><path d="M713.917 443.927 621.083 443.927C608.319 443.927 597.875 454.371 597.875 467.135L597.875 513.552C597.875 526.317 608.319 536.76 621.083 536.76L713.917 536.76C726.681 536.76 737.125 526.317 737.125 513.552L737.125 467.135C737.125 454.371 726.681 443.927 713.917 443.927ZM621.083 513.552 621.083 467.135 713.917 467.135 713.917 513.552 621.083 513.552Z" fill="#FF1BE1" fill-rule="nonzero" fill-opacity="1"/><path d="M492.277 142.219C488.796 154.983 480.093 165.427 467.908 171.229 479.513 177.031 488.796 187.475 492.277 200.24 495.758 187.475 504.461 177.031 516.646 171.229 505.042 165.427 495.758 154.983 492.277 142.219Z" fill="#FF1BE1" fill-rule="nonzero" fill-opacity="1"/><path d="M875.215 270.445C871.733 283.209 863.03 293.653 850.846 299.455 862.45 305.257 871.733 315.701 875.215 328.466 878.696 315.701 887.399 305.257 899.583 299.455 887.979 293.653 878.696 283.209 875.215 270.445Z" fill="#FF1BE1" fill-rule="nonzero" fill-opacity="1"/></g></g></g></g></svg>