<svg width="280" height="280" xmlns="http://www.w3.org/2000/svg" xmlns:xlink="http://www.w3.org/1999/xlink" overflow="hidden"><defs><clipPath id="clip0"><rect x="592" y="312" width="280" height="280"/></clipPath></defs><g clip-path="url(#clip0)" transform="translate(-592 -312)"><path d="M682.417 402.417 650.333 402.417 650.333 382 682.417 382 682.417 402.417ZM726.167 382 726.167 402.417 694.083 402.417 694.083 382 726.167 382ZM769.917 382 769.917 402.417 737.833 402.417 737.833 382 769.917 382ZM813.667 382 813.667 402.417 781.583 402.417 781.583 382 813.667 382ZM813.667 434.5 781.583 434.5 781.583 414.083 813.667 414.083 813.667 434.5ZM813.667 459.292 781.583 462.208 781.583 446.167 813.667 446.167 813.667 459.292ZM682.417 446.167 682.417 470.958 650.333 473.875 650.333 446.167 682.417 446.167ZM682.417 434.5 650.333 434.5 650.333 414.083 682.417 414.083 682.417 434.5ZM726.167 434.5 694.083 434.5 694.083 414.083 726.167 414.083 726.167 434.5ZM737.833 434.5 737.833 414.083 769.917 414.083 769.917 434.5 737.833 434.5ZM726.167 467.167 694.083 470.083 694.083 446.167 726.167 446.167 726.167 467.167ZM737.833 446.167 769.917 446.167 769.917 463.083 737.833 466 737.833 446.167ZM831.167 475.333 831.167 364.5 650.333 364.5 650.333 361.583C650.333 347 638.667 335.333 624.083 335.333 619.125 335.333 615.333 339.125 615.333 344.083 615.333 349.042 619.125 352.833 624.083 352.833 629.042 352.833 632.833 356.625 632.833 361.583L632.833 507.417C632.833 522 644.5 533.667 659.083 533.667L667.833 533.667 796.167 533.667 822.417 533.667C827.375 533.667 831.167 529.875 831.167 524.917 831.167 519.958 827.375 516.167 822.417 516.167L659.083 516.167C654.125 516.167 650.333 512.375 650.333 507.417L650.333 491.375 831.167 475.333Z" stroke="#FF0000" stroke-width="2.91666" stroke-linecap="butt" stroke-linejoin="miter" stroke-miterlimit="4" stroke-opacity="1" fill="#FF0000" fill-rule="nonzero" fill-opacity="1"/><path d="M685.333 551.167C685.333 560.832 677.498 568.667 667.833 568.667 658.168 568.667 650.333 560.832 650.333 551.167 650.333 541.502 658.168 533.667 667.833 533.667 677.498 533.667 685.333 541.502 685.333 551.167Z" stroke="#FF0000" stroke-width="2.91666" stroke-linecap="butt" stroke-linejoin="miter" stroke-miterlimit="4" stroke-opacity="1" fill="#FF0000" fill-rule="nonzero" fill-opacity="1"/><path d="M813.667 551.167C813.667 560.832 805.832 568.667 796.167 568.667 786.502 568.667 778.667 560.832 778.667 551.167 778.667 541.502 786.502 533.667 796.167 533.667 805.832 533.667 813.667 541.502 813.667 551.167Z" stroke="#FF0000" stroke-width="2.91666" stroke-linecap="butt" stroke-linejoin="miter" stroke-miterlimit="4" stroke-opacity="1" fill="#FF0000" fill-rule="nonzero" fill-opacity="1"/></g></svg>